<?xml version="1.0" encoding="utf-8"?>
<!-- Generator: Adobe Illustrator 18.1.0, SVG Export Plug-In . SVG Version: 6.00 Build 0)  -->
<svg version="1.1" id="dogs" xmlns="http://www.w3.org/2000/svg" xmlns:xlink="http://www.w3.org/1999/xlink" x="0px" y="0px"
	 viewBox="859.6 776.6 700 438.7" enable-background="new 859.6 776.6 700 438.7" xml:space="preserve">
<path id="dog2" d="M975.1,777.1c-10-5.8-32.7,35.4-30.4,39.3c2.4,3.8-24-3.8-30.4,0s-8,8.6-8,8.6s-41.6,2-45.6,5.8
	c-4,3.8,1.5,29.1,24.9,31.3c36.9,3.1,7.1,14.7,7.1,14.7s-16,4.9-20.7,6.7c-4.7,2,2.4,11.5,10.4,11.5s32-5.8,34.3-2
	c2.4,3.8,8.7,22,8.7,26.9c0,4.7,3.3,22.9,7.3,32.5c4,9.6-12,97.6,43.3,137.8c1.6,11.5,3.1,14.4,8.7,18.2c0.7,11.5,0,47.8,4,60.4
	c-6.3,8.6-8,14.4-12.9,16.4c-4.7,1.8-16.7,14.4-17.6,14.4c-0.7,0,0.7,10.6,30.4,2.9c4.7-8.7,13.6-24,16.7-30.7
	c3.3-6.7,4,6.7,6.3,9.7c2.4,2.9-10.4,14.4-12,18.2c-1.6,3.8-4,8.6,19.3,4.7c4.9-12.4,8.7-13.5,15.3-24c-2.4-15.3-4.9-34.5-2.4-44.9
	c10.4,7.7,23.3,13.5,38.4,18.2c-3.3,16.4,0.7,27.8,13.6,32.5c-1.6,6.7-6.3,3.8-10.4,6.7c-4,2.9-8.7,13.5-4.7,13.5
	c4,0,32.7,22,120-2.9c0.2-1.5,4.4-3.6,5.4-5.1c6.5-5.4,11.1-11.3,18-15.5c0.2-3-11.7-10.2-13.8-13.7
	c-6.3-10.6-12.9-87.1-104.9-177.1c-18.4-19.1-97.7-97.7-98.4-103.5c-0.9-5.8-15.3-27.8-25.6-38.4c1.6-10.6,1.6-16.4,0.7-20.2
	c-0.7-3.8,5.1-24.4,1.1-35.8C974.2,785.7,971.1,786.1,975.1,777.1z"/>
<path id="dog1" d="M1214,777.1c-10-5.8-32.7,35.4-30.4,39.3c2.4,3.8-24-3.8-30.4,0s-8,8.6-8,8.6s-41.6,2-45.6,5.8
	c-4,3.8,1.4,29.1,24.9,31.3c36.9,3.1,7.1,14.7,7.1,14.7s-16,4.9-20.7,6.7c-4.7,2,2.4,11.5,10.4,11.5c8,0,32-5.8,34.3-2
	c2.4,3.8,8.7,22,8.7,26.9c0,4.7,3.3,22.9,7.1,32.5c4,9.7-12,97.6,43.3,137.8c1.6,11.5,3.1,14.4,8.7,18.2c0.7,11.5,0,47.8,4,60.4
	c-6.3,8.6-8,14.4-12.9,16.4c-4.7,1.8-16.7,14.4-17.6,14.4c-0.7,0,0.9,10.6,30.4,2.9c4.7-8.7,13.6-24,16.7-30.7
	c3.3-6.7,4,6.7,6.3,9.7c2.4,2.9-10.4,14.4-12,18.2c-1.6,3.8-4,8.6,19.3,4.7c4.9-12.4,8.7-13.3,15.3-23.8
	c-2.4-15.3-4.9-34.5-2.4-44.9c10.4,7.7,23.3,13.5,38.4,18.2c-3.3,16.4,0.7,27.8,13.6,32.5c-1.6,6.7-6.3,3.8-10.4,6.7
	c-4,2.9-8.7,13.5-4.7,13.5c4,0,32.7,22,120-2.9c1.6-11.5,12.7,0,20.7,2.9c8,2.9,72.2,6.7,90.5,0.9c18.4-5.8,23.1-22.9,20-23.8
	c-13.6-4.2,27.1,19.1-76.7,5.6c-19.3-5.8-38.4-9.5-44.9-20.2c-6.3-10.6-12.7-87.1-104.7-177.1c-18.4-19.1-97.6-97.6-98.4-103.5
	s-15.1-27.8-25.6-38.4c1.6-10.6,1.6-16.4,0.7-20c-0.7-3.8,5.1-24.4,1.1-35.8C1213.1,785.7,1210.2,786.1,1214,777.1z"/>
</svg>
