<?xml version="1.0" encoding="utf-8"?>
<!-- Generator: Adobe Illustrator 18.1.0, SVG Export Plug-In . SVG Version: 6.00 Build 0)  -->
<svg version="1.1" id="dogs" xmlns="http://www.w3.org/2000/svg" xmlns:xlink="http://www.w3.org/1999/xlink" x="0px" y="0px"
	 viewBox="0 0 2000 2000" enable-background="new 0 0 2000 2000" xml:space="preserve">
<path id="dog2" d="M692.2,513.1c-22.1-12.8-72.2,78.2-67,86.7c5.2,8.4-53-8.4-67,0s-17.7,18.9-17.7,18.9s-91.9,4.4-100.7,12.8
	c-8.8,8.4,3.2,64.2,55,69c81.4,6.8,15.6,32.5,15.6,32.5s-35.3,10.8-45.7,14.8c-10.4,4.4,5.2,25.3,22.9,25.3s70.6-12.8,75.8-4.4
	c5.2,8.4,19.3,48.5,19.3,59.4c0,10.4,7.2,50.6,16,71.8s-26.5,215.4,95.5,304.1c3.6,25.3,6.8,31.7,19.3,40.1
	c1.6,25.3,0,105.5,8.8,133.2c-14,18.9-17.7,31.7-28.5,36.1c-10.4,4-36.9,31.7-38.9,31.7c-1.6,0,1.6,23.3,67,6.4
	c10.4-19.3,30.1-53,36.9-67.8c7.2-14.8,8.8,14.8,14,21.3s-22.9,31.7-26.5,40.1s-8.8,18.9,42.5,10.4c10.8-27.3,19.3-29.7,33.7-53
	c-5.2-33.7-10.8-76.2-5.2-99.1c22.9,16.9,51.4,29.7,84.7,40.1c-7.2,36.1,1.6,61.4,30.1,71.8c-3.6,14.8-14,8.4-22.9,14.8
	S890,1460,898.9,1460s72.2,48.5,264.8-6.4c0.5-3.4,9.7-7.9,12-11.2c14.3-12,24.6-25,39.7-34.3c0.4-6.7-25.8-22.6-30.4-30.3
	c-14-23.3-28.5-192.2-231.5-390.8C912.9,944.8,738,771.5,736.4,758.7c-2-12.8-33.7-61.4-56.6-84.7c3.6-23.3,3.6-36.1,1.6-44.5
	c-1.6-8.4,11.2-53.8,2.4-79C690.2,532,683.4,532.8,692.2,513.1z"/>
<path id="dog1" d="M1219.4,513.1c-22.1-12.8-72.2,78.2-67,86.7c5.2,8.4-53-8.4-67,0s-17.7,18.9-17.7,18.9s-91.9,4.4-100.7,12.8
	s3.2,64.2,55,69c81.4,6.8,15.6,32.5,15.6,32.5s-35.3,10.8-45.7,14.8c-10.4,4.4,5.2,25.3,22.9,25.3s70.6-12.8,75.8-4.4
	c5.2,8.4,19.3,48.5,19.3,59.4c0,10.4,7.2,50.6,15.6,71.8c8.8,21.3-26.5,215.4,95.5,304.1c3.6,25.3,6.8,31.7,19.3,40.1
	c1.6,25.3,0,105.5,8.8,133.2c-14,18.9-17.7,31.7-28.5,36.1c-10.4,4-36.9,31.7-38.9,31.7c-1.6,0,2,23.3,67,6.4
	c10.4-19.3,30.1-53,36.9-67.8c7.2-14.8,8.8,14.8,14,21.3c5.2,6.4-22.9,31.7-26.5,40.1s-8.8,18.9,42.5,10.4
	c10.8-27.3,19.3-29.3,33.7-52.6c-5.2-33.7-10.8-76.2-5.2-99.1c22.9,16.9,51.4,29.7,84.7,40.1c-7.2,36.1,1.6,61.4,30.1,71.8
	c-3.6,14.8-14,8.4-22.9,14.8s-19.3,29.7-10.4,29.7c8.8,0,72.2,48.5,264.8-6.4c3.6-25.3,28.1,0,45.7,6.4c17.7,6.4,159.3,14.8,199.8,2
	s51-50.6,44.1-52.6c-30.1-9.2,59.8,42.1-169.3,12.4c-42.5-12.8-84.7-20.9-99.1-44.5c-14-23.3-28.1-192.2-231.1-390.8
	c-40.5-42.1-215.4-215.4-217.1-228.3s-33.3-61.4-56.6-84.7c3.6-23.3,3.6-36.1,1.6-44.1c-1.6-8.4,11.2-53.8,2.4-79
	C1217.4,532,1211,532.8,1219.4,513.1z"/>
</svg>
