<?xml version="1.0" encoding="utf-8"?>
<!-- Generator: Adobe Illustrator 18.1.0, SVG Export Plug-In . SVG Version: 6.00 Build 0)  -->
<svg version="1.1" id="dogs" xmlns="http://www.w3.org/2000/svg" xmlns:xlink="http://www.w3.org/1999/xlink" x="0px" y="0px"
	 viewBox="-75 -75 150 150" enable-background="new -75 -75 150 150" xml:space="preserve">
<path id="dog-outline" fill="#081FF9" d="M-150-150V0H0v-150H-150z M-62.7-41c-14.4,4.1-19.2,0.5-19.9,0.5c-0.7,0,0.1-1.7,0.8-2.2
	s1.4,0,1.7-1.1c-2.1-0.8-2.8-2.7-2.3-5.4c-2.5-0.8-4.6-1.7-6.4-3c-0.4,1.7,0,4.9,0.4,7.4c-1.1,1.7-1.7,1.9-2.5,4
	c-3.9,0.6-3.5-0.2-3.2-0.8s2.4-2.5,2-3c-0.4-0.5-0.5-2.7-1-1.6c-0.5,1.1-2,3.6-2.8,5.1c-4.9,1.3-5.1-0.5-5-0.5
	c0.2,0,2.1-2.1,2.9-2.4c0.8-0.3,1.1-1.3,2.1-2.7c-0.7-2.1-0.5-8.1-0.7-10c-0.9-0.6-1.2-1.1-1.4-3c-9.2-6.7-6.5-21.2-7.2-22.8
	s-1.2-4.6-1.2-5.4c0-0.8-1.1-3.8-1.4-4.5c-0.4-0.6-4.4,0.3-5.7,0.3s-2.5-1.6-1.7-1.9c0.8-0.3,3.4-1.1,3.4-1.1s4.9-1.9-1.2-2.4
	c-3.9-0.4-4.8-4.5-4.1-5.2c0.7-0.6,7.6-1,7.6-1s0.3-0.8,1.3-1.4c1.1-0.6,5.4,0.6,5,0c-0.4-0.6,3.4-7.5,5-6.5
	c-0.7,1.5-0.2,1.4-0.6,2.8c0.7,1.9-0.3,5.3-0.2,5.9c0.2,0.6,0.2,1.6-0.1,3.3c1.7,1.7,4.1,5.4,4.2,6.4c0.1,1,13.2,13.9,16.3,17.1
	c15.2,14.9,16.3,27.6,17.4,29.3c0.3,0.6,2.3,1.8,2.3,2.3c-1.1,0.7-1.9,1.7-3,2.6C-62-41.6-62.7-41.2-62.7-41z M-4.8-40.3
	c-3,1-13.7,0.3-15-0.1c-1.3-0.5-3.2-2.4-3.4-0.5c-14.4,4.1-19.2,0.5-19.9,0.5s0.1-1.7,0.8-2.2c0.7-0.5,1.4,0,1.7-1.1
	c-2.1-0.8-2.8-2.7-2.3-5.4c-2.5-0.8-4.6-1.7-6.4-3c-0.4,1.7,0,4.9,0.4,7.4c-1.1,1.7-1.7,1.9-2.5,3.9c-3.9,0.6-3.5-0.2-3.2-0.8
	s2.4-2.5,2-3c-0.4-0.5-0.5-2.7-1-1.6c-0.5,1.1-2,3.6-2.8,5.1c-4.9,1.3-5.1-0.5-5-0.5c0.2,0,2.1-2.1,2.9-2.4c0.8-0.3,1.1-1.3,2.1-2.7
	c-0.7-2.1-0.5-8.1-0.7-10c-0.9-0.6-1.2-1.1-1.4-3c-9.2-6.7-6.5-21.2-7.2-22.8c-0.6-1.6-1.2-4.6-1.2-5.4c0-0.8-1.1-3.8-1.4-4.5
	c-0.4-0.6-4.4,0.3-5.7,0.3c-1.3,0-2.5-1.6-1.7-1.9c0.8-0.3,3.4-1.1,3.4-1.1s4.9-1.9-1.2-2.4c-3.9-0.4-4.8-4.5-4.1-5.2
	c0.7-0.6,7.6-1,7.6-1s0.3-0.8,1.3-1.4c1.1-0.6,5.4,0.6,5,0c-0.4-0.6,3.4-7.5,5-6.5c-0.6,1.5-0.1,1.4-0.6,2.8
	c0.7,1.9-0.3,5.3-0.2,5.9c0.1,0.6,0.1,1.6-0.1,3.3c1.7,1.7,4.1,5.4,4.2,6.4c0.1,1,13.2,14,16.3,17.1c15.2,14.9,16.3,27.6,17.3,29.3
	c1.1,1.8,4.2,2.4,7.4,3.3C3-41.1-3.7-44.9-1.5-44.2C-1-44.1-1.8-41.3-4.8-40.3z"/>
</svg>
