<?xml version="1.0" encoding="utf-8"?>
<!-- Generator: Adobe Illustrator 18.1.0, SVG Export Plug-In . SVG Version: 6.00 Build 0)  -->
<svg version="1.1" id="Layer_1" xmlns="http://www.w3.org/2000/svg" xmlns:xlink="http://www.w3.org/1999/xlink" x="0px" y="0px"
	 viewBox="0 0 150 150" enable-background="new 0 0 150 150" xml:space="preserve">
<g id="dogs">
	<path id="dog2" d="M50.1,38.7c-1.7-1-5.4,5.9-5,6.5c0.4,0.6-4-0.6-5,0c-1.1,0.6-1.3,1.4-1.3,1.4s-6.9,0.3-7.6,1
		c-0.7,0.6,0.2,4.8,4.1,5.2c6.1,0.5,1.2,2.4,1.2,2.4S33.8,56,33,56.3c-0.8,0.3,0.4,1.9,1.7,1.9c1.3,0,5.3-1,5.7-0.3
		c0.4,0.6,1.4,3.6,1.4,4.5c0,0.8,0.5,3.8,1.2,5.4c0.7,1.6-2,16.2,7.2,22.8c0.3,1.9,0.5,2.4,1.4,3c0.1,1.9,0,7.9,0.7,10
		c-1,1.4-1.3,2.4-2.1,2.7c-0.8,0.3-2.8,2.4-2.9,2.4c-0.1,0,0.1,1.8,5,0.5c0.8-1.4,2.3-4,2.8-5.1c0.5-1.1,0.7,1.1,1,1.6
		c0.4,0.5-1.7,2.4-2,3c-0.3,0.6-0.7,1.4,3.2,0.8c0.8-2.1,1.4-2.2,2.5-4c-0.4-2.5-0.8-5.7-0.4-7.4c1.7,1.3,3.9,2.2,6.4,3
		c-0.5,2.7,0.1,4.6,2.3,5.4c-0.3,1.1-1,0.6-1.7,1.1c-0.7,0.5-1.4,2.2-0.8,2.2c0.7,0,5.4,3.6,19.9-0.5c0-0.2,0.7-0.6,0.9-0.8
		c1.1-0.9,1.8-1.9,3-2.6c0-0.5-1.9-1.7-2.3-2.3c-1-1.8-2.1-14.4-17.4-29.4c-3.1-3.2-16.2-16.2-16.3-17.2c-0.1-1-2.5-4.6-4.2-6.4
		c0.3-1.8,0.3-2.7,0.1-3.3c-0.1-0.6,0.8-4,0.2-5.9C50,40.1,49.4,40.2,50.1,38.7z"/>
	<path id="dog1" d="M89.7,38.7c-1.7-1-5.4,5.9-5,6.5c0.4,0.6-4-0.6-5,0c-1.1,0.6-1.3,1.4-1.3,1.4s-6.9,0.3-7.6,1
		c-0.7,0.6,0.2,4.8,4.1,5.2c6.1,0.5,1.2,2.4,1.2,2.4s-2.7,0.8-3.4,1.1c-0.8,0.3,0.4,1.9,1.7,1.9c1.3,0,5.3-1,5.7-0.3
		c0.4,0.6,1.4,3.6,1.4,4.5c0,0.8,0.5,3.8,1.2,5.4c0.7,1.6-2,16.2,7.2,22.8c0.3,1.9,0.5,2.4,1.4,3c0.1,1.9,0,7.9,0.7,10
		c-1,1.4-1.3,2.4-2.1,2.7c-0.8,0.3-2.8,2.4-2.9,2.4c-0.1,0,0.1,1.8,5,0.5c0.8-1.4,2.3-4,2.8-5.1c0.5-1.1,0.7,1.1,1,1.6
		c0.4,0.5-1.7,2.4-2,3c-0.3,0.6-0.7,1.4,3.2,0.8c0.8-2.1,1.4-2.2,2.5-3.9c-0.4-2.5-0.8-5.7-0.4-7.4c1.7,1.3,3.9,2.2,6.4,3
		c-0.5,2.7,0.1,4.6,2.3,5.4c-0.3,1.1-1,0.6-1.7,1.1c-0.7,0.5-1.4,2.2-0.8,2.2s5.4,3.6,19.9-0.5c0.3-1.9,2.1,0,3.4,0.5s12,1.1,15,0.1
		c3.1-1,3.8-3.8,3.3-3.9c-2.3-0.7,4.5,3.2-12.7,0.9c-3.2-1-6.4-1.6-7.4-3.3c-1-1.8-2.1-14.4-17.4-29.4c-3.1-3.2-16.2-16.2-16.3-17.2
		c-0.1-1-2.5-4.6-4.2-6.4c0.3-1.8,0.3-2.7,0.1-3.3c-0.1-0.6,0.8-4,0.2-5.9C89.6,40.1,89.1,40.2,89.7,38.7z"/>
</g>
</svg>
