<?xml version="1.0" encoding="utf-8"?>
<!-- Generator: Adobe Illustrator 18.1.0, SVG Export Plug-In . SVG Version: 6.00 Build 0)  -->
<svg version="1.1" id="Layer_1" xmlns="http://www.w3.org/2000/svg" xmlns:xlink="http://www.w3.org/1999/xlink" x="0px" y="0px"
	 viewBox="0 0 1000 1000" enable-background="new 0 0 1000 1000" xml:space="preserve">
<g id="dogs">
	<path id="dog2" d="M293.8,241.1c-12.1-7.1-38.5,42.1-35.7,46.4c2.9,4.3-28.5-4.3-35.7,0c-7.9,4.3-9.3,10-9.3,10s-49.2,2.1-54.2,7.1
		c-5,4.3,1.4,34.3,29.3,37.1c43.5,3.6,8.6,17.1,8.6,17.1s-19.3,5.7-25,7.9c-5.7,2.1,2.9,13.6,12.1,13.6c9.3,0,37.8-7.1,40.7-2.1
		c2.9,4.3,10,25.7,10,32.1c0,5.7,3.6,27.1,8.6,38.5c5,11.4-14.3,115.6,51.4,162.7c2.1,13.6,3.6,17.1,10,21.4c0.7,13.6,0,56.4,5,71.4
		c-7.1,10-9.3,17.1-15,19.3c-5.7,2.1-20,17.1-20.7,17.1c-0.7,0,0.7,12.8,35.7,3.6c5.7-10,16.4-28.5,20-36.4c3.6-7.9,5,7.9,7.1,11.4
		c2.9,3.6-12.1,17.1-14.3,21.4c-2.1,4.3-5,10,22.8,5.7c5.7-15,10-15.7,17.8-28.5c-2.9-17.8-5.7-40.7-2.9-52.8
		c12.1,9.3,27.8,15.7,45.7,21.4c-3.6,19.3,0.7,32.8,16.4,38.5c-2.1,7.9-7.1,4.3-12.1,7.9c-5,3.6-10,15.7-5.7,15.7
		c5,0,38.5,25.7,142-3.6c0-1.4,5-4.3,6.4-5.7c7.9-6.4,12.8-13.6,21.4-18.6c0-3.6-13.6-12.1-16.4-16.4
		c-7.1-12.8-15-102.8-124.2-209.8c-22.1-22.8-115.6-115.6-116.3-122.8c-0.7-7.1-17.8-32.8-30-45.7c2.1-12.8,2.1-19.3,0.7-23.6
		c-0.7-4.3,5.7-28.5,1.4-42.1C293.1,251.1,288.8,251.8,293.8,241.1z"/>
	<path id="dog1" d="M576.4,241.1c-12.1-7.1-38.5,42.1-35.7,46.4s-28.5-4.3-35.7,0c-7.9,4.3-9.3,10-9.3,10s-49.2,2.1-54.2,7.1
		c-5,4.3,1.4,34.3,29.3,37.1c43.5,3.6,8.6,17.1,8.6,17.1s-19.3,5.7-24.3,7.9c-5.7,2.1,2.9,13.6,12.1,13.6c9.3,0,37.8-7.1,40.7-2.1
		c2.9,4.3,10,25.7,10,32.1c0,5.7,3.6,27.1,8.6,38.5s-14.3,115.6,51.4,162.7c2.1,13.6,3.6,17.1,10,21.4c0.7,13.6,0,56.4,5,71.4
		c-7.1,10-9.3,17.1-15,19.3c-5.7,2.1-20,17.1-20.7,17.1s0.7,12.8,35.7,3.6c5.7-10,16.4-28.5,20-36.4c3.6-7.9,5,7.9,7.1,11.4
		c2.9,3.6-12.1,17.1-14.3,21.4c-2.1,4.3-5,10,22.8,5.7c5.7-15,10-15.7,17.8-27.8c-2.9-17.8-5.7-40.7-2.9-52.8
		c12.1,9.3,27.8,15.7,45.7,21.4c-3.6,19.3,0.7,32.8,16.4,38.5c-2.1,7.9-7.1,4.3-12.1,7.9s-10,15.7-5.7,15.7s38.5,25.7,142-3.6
		c2.1-13.6,15,0,24.3,3.6s85.6,7.9,107.1,0.7c22.1-7.1,27.1-27.1,23.6-27.8c-16.4-5,32.1,22.8-90.6,6.4
		c-22.8-7.1-45.7-11.4-52.8-23.6c-7.1-12.8-15-102.8-124.2-209.8c-22.1-22.8-115.6-115.6-116.3-122.8c-0.7-7.1-17.8-32.8-30-45.7
		c2.1-12.8,2.1-19.3,0.7-23.6c-0.7-4.3,5.7-28.5,1.4-42.1C575.7,251.1,572.1,251.8,576.4,241.1z"/>
</g>
</svg>
