<?xml version="1.0" encoding="utf-8"?>
<!-- Generator: Adobe Illustrator 18.1.0, SVG Export Plug-In . SVG Version: 6.00 Build 0)  -->
<svg version="1.1" id="Layer_1" xmlns="http://www.w3.org/2000/svg" xmlns:xlink="http://www.w3.org/1999/xlink" x="0px" y="0px"
	 viewBox="0 0 400 250" enable-background="new 0 0 400 250" xml:space="preserve">
<g id="dogs">
	<path id="dog2" d="M70.1,2.9c-5.7-3.4-18.1,19.8-16.8,21.8c1.3,2-13.4-2-16.8,0c-3.7,2-4.4,4.7-4.4,4.7s-23.2,1-25.5,3.4
		c-2.4,2,0.7,16.1,13.8,17.5c20.5,1.7,4,8.1,4,8.1S15.3,61,12.6,62c-2.7,1,1.3,6.4,5.7,6.4s17.8-3.4,19.2-1c1.3,2,4.7,12.1,4.7,15.1
		c0,2.7,1.7,12.8,4,18.1s-6.7,54.4,24.2,76.6c1,6.4,1.7,8.1,4.7,10.1c0.3,6.4,0,26.5,2.4,33.6c-3.4,4.7-4.4,8.1-7.1,9.1
		c-2.7,1-9.4,8.1-9.7,8.1c-0.3,0,0.3,6,16.8,1.7c2.7-4.7,7.7-13.4,9.4-17.1c1.7-3.7,2.4,3.7,3.4,5.4c1.3,1.7-5.7,8.1-6.7,10.1
		c-1,2-2.4,4.7,10.8,2.7c2.7-7.1,4.7-7.4,8.4-13.4c-1.3-8.4-2.7-19.2-1.3-24.9c5.7,4.4,13.1,7.4,21.5,10.1
		c-1.7,9.1,0.3,15.5,7.7,18.1c-1,3.7-3.4,2-5.7,3.7s-4.7,7.4-2.7,7.4c2.4,0,18.1,12.1,66.9-1.7c0-0.7,2.4-2,3-2.7
		c3.7-3,6-6.4,10.1-8.7c0-1.7-6.4-5.7-7.7-7.7c-3.4-6-7.1-48.4-58.5-98.8c-10.4-10.8-54.4-54.4-54.8-57.8C80.8,61,72.8,48.9,67,42.9
		c1-6,1-9.1,0.3-11.1c-0.3-2,2.7-13.4,0.7-19.8C69.7,7.6,67.7,7.9,70.1,2.9z"/>
	<path id="dog1" d="M203.1,2.9c-5.7-3.4-18.1,19.8-16.8,21.8c1.3,2-13.4-2-16.8,0c-3.7,2-4.4,4.7-4.4,4.7s-23.2,1-25.5,3.4
		c-2.4,2,0.7,16.1,13.8,17.5c20.5,1.7,4,8.1,4,8.1S148.4,61,146,62c-2.7,1,1.3,6.4,5.7,6.4c4.4,0,17.8-3.4,19.2-1
		c1.3,2,4.7,12.1,4.7,15.1c0,2.7,1.7,12.8,4,18.1s-6.7,54.4,24.2,76.6c1,6.4,1.7,8.1,4.7,10.1c0.3,6.4,0,26.5,2.4,33.6
		c-3.4,4.7-4.4,8.1-7.1,9.1c-2.7,1-9.4,8.1-9.7,8.1s0.3,6,16.8,1.7c2.7-4.7,7.7-13.4,9.4-17.1c1.7-3.7,2.4,3.7,3.4,5.4
		c1.3,1.7-5.7,8.1-6.7,10.1c-1,2-2.4,4.7,10.8,2.7c2.7-7.1,4.7-7.4,8.4-13.1c-1.3-8.4-2.7-19.2-1.3-24.9c5.7,4.4,13.1,7.4,21.5,10.1
		c-1.7,9.1,0.3,15.5,7.7,18.1c-1,3.7-3.4,2-5.7,3.7c-2.4,1.7-4.7,7.4-2.7,7.4c2,0,18.1,12.1,66.9-1.7c1-6.4,7.1,0,11.4,1.7
		s40.3,3.7,50.4,0.3c10.4-3.4,12.8-12.8,11.1-13.1c-7.7-2.4,15.1,10.8-42.7,3c-10.8-3.4-21.5-5.4-24.9-11.1
		c-3.4-6-7.1-48.4-58.5-98.8c-10.4-10.8-54.4-54.4-54.8-57.8c-0.3-3.4-8.4-15.5-14.1-21.5c1-6,1-9.1,0.3-11.1
		c-0.3-2,2.7-13.4,0.7-19.8C202.8,7.6,201.1,7.9,203.1,2.9z"/>
</g>
</svg>
