<?xml version="1.0" encoding="utf-8"?>
<!-- Generator: Adobe Illustrator 18.1.0, SVG Export Plug-In . SVG Version: 6.00 Build 0)  -->
<svg version="1.1" id="Layer_1" xmlns="http://www.w3.org/2000/svg" xmlns:xlink="http://www.w3.org/1999/xlink" x="0px" y="0px"
	 viewBox="0 0 500 500" enable-background="new 0 0 500 500" xml:space="preserve">
	<g id="dogs">
		<path id="dog2" d="M147.7,119.7c-6.1-3.6-19.4,21.2-18,23.4c1.4,2.2-14.4-2.2-18,0c-4,2.2-4.7,5-4.7,5s-24.8,1.1-27.3,3.6 c-2.5,2.2,0.7,17.2,14.7,18.7c21.9,1.8,4.3,8.6,4.3,8.6s-9.7,2.9-12.6,4c-2.9,1.1,1.4,6.8,6.1,6.8c4.7,0,19-3.6,20.5-1.1 c1.4,2.2,5,12.9,5,16.2c0,2.9,1.8,13.7,4.3,19.4c2.5,5.7-7.2,58.2,25.9,81.9c1.1,6.8,1.8,8.6,5,10.8c0.4,6.8,0,28.4,2.5,35.9 c-3.6,5-4.7,8.6-7.5,9.7c-2.9,1.1-10.1,8.6-10.4,8.6c-0.4,0,0.4,6.5,18,1.8c2.9-5,8.3-14.4,10.1-18.3c1.8-4,2.5,4,3.6,5.7 c1.4,1.8-6.1,8.6-7.2,10.8c-1.1,2.2-2.5,5,11.5,2.9c2.9-7.5,5-7.9,9-14.4c-1.4-9-2.9-20.5-1.4-26.6c6.1,4.7,14,7.9,23,10.8 c-1.8,9.7,0.4,16.5,8.3,19.4c-1.1,4-3.6,2.2-6.1,4c-2.5,1.8-5,7.9-2.9,7.9c2.5,0,19.4,12.9,71.5-1.8c0-0.7,2.5-2.2,3.2-2.9 c4-3.2,6.5-6.8,10.8-9.3c0-1.8-6.8-6.1-8.3-8.3c-3.6-6.5-7.5-51.7-62.5-105.6c-11.1-11.5-58.2-58.2-58.6-61.8s-9-16.5-15.1-23 c1.1-6.5,1.1-9.7,0.4-11.9c-0.4-2.2,2.9-14.4,0.7-21.2C147.4,124.7,145.2,125.1,147.7,119.7z"/>
		<path id="dog1" d="M290,119.7c-6.1-3.6-19.4,21.2-18,23.4c1.4,2.2-14.4-2.2-18,0c-4,2.2-4.7,5-4.7,5s-24.8,1.1-27.3,3.6 c-2.5,2.2,0.7,17.2,14.7,18.7c21.9,1.8,4.3,8.6,4.3,8.6s-9.7,2.9-12.2,4c-2.9,1.1,1.4,6.8,6.1,6.8c4.7,0,19-3.6,20.5-1.1 c1.4,2.2,5,12.9,5,16.2c0,2.9,1.8,13.7,4.3,19.4c2.5,5.7-7.2,58.2,25.9,81.9c1.1,6.8,1.8,8.6,5,10.8c0.4,6.8,0,28.4,2.5,35.9 c-3.6,5-4.7,8.6-7.5,9.7c-2.9,1.1-10.1,8.6-10.4,8.6c-0.4,0,0.4,6.5,18,1.8c2.9-5,8.3-14.4,10.1-18.3c1.8-4,2.5,4,3.6,5.7 c1.4,1.8-6.1,8.6-7.2,10.8c-1.1,2.2-2.5,5,11.5,2.9c2.9-7.5,5-7.9,9-14c-1.4-9-2.9-20.5-1.4-26.6c6.1,4.7,14,7.9,23,10.8 c-1.8,9.7,0.4,16.5,8.3,19.4c-1.1,4-3.6,2.2-6.1,4s-5,7.9-2.9,7.9c2.2,0,19.4,12.9,71.5-1.8c1.1-6.8,7.5,0,12.2,1.8 c4.7,1.8,43.1,4,53.9,0.4c11.1-3.6,13.7-13.7,11.9-14c-8.3-2.5,16.2,11.5-45.6,3.2c-11.5-3.6-23-5.7-26.6-11.9 c-3.6-6.5-7.5-51.7-62.5-105.6c-11.1-11.5-58.2-58.2-58.6-61.8c-0.4-3.6-9-16.5-15.1-23c1.1-6.5,1.1-9.7,0.4-11.9 c-0.4-2.2,2.9-14.4,0.7-21.2C289.6,124.7,287.8,125.1,290,119.7z"/>
	</g>
</svg>